<svg id="Calque_1" data-name="Calque 1" xmlns="http://www.w3.org/2000/svg" viewBox="0 0 102.78 26.27"><defs><style>.cls-1{fill:#e52628;}</style></defs><title>seneflix-logo</title><path class="cls-1" d="M3.81,24.22V22.74l3.84-.29V24.2c0,1.82.81,2.41,2.11,2.3s2.1-.82,2.1-2.69c0-2.08-.81-3.34-3.47-5.48-3.39-2.76-4.5-4.85-4.5-7.81C3.89,6.44,6,4.07,10,4.09s5.92,2.27,5.92,6.22v1l-3.85.1V10.15c0-1.8-.74-2.47-2-2.45s-2,.72-2,2.47.85,3.18,3.51,5.34c3.4,2.76,4.47,4.67,4.47,7.75,0,4-2.15,6.45-6.14,6.85S3.81,28.38,3.81,24.22Z" transform="translate(-3.81 -4.09)"/><path class="cls-1" d="M18.28,4.44h11.1v3.4l-7,.07v6.42l5.58-.15v3.42c-1.86.06-3.72.12-5.59.2v7.45q3.53-.21,7-.37v3.4c-3.7.21-7.4.45-11.1.74Z" transform="translate(-3.81 -4.09)"/><path class="cls-1" d="M31.71,4.43h5.11q2,7,3.94,14h.08q0-7,0-14h3.63q0,11.64,0,23.27l-4.19.11q-2.43-8.44-4.87-17h-.07q0,8.59,0,17.2l-3.63.16Z" transform="translate(-3.81 -4.09)"/><path class="cls-1" d="M47.51,4.42h11.1V7.73c-2.34,0-4.69,0-7,0v6.12h5.59v3.3H51.58v7.11h7v3.31c-3.7,0-7.41,0-11.11.05Q47.5,16,47.51,4.42Z" transform="translate(-3.81 -4.09)"/><path class="cls-1" d="M60.94,4.42H71.71V7.77l-6.7,0v6.48c1.76,0,3.51,0,5.26.06v3.34L65,17.54V27.67L61,27.6Q60.93,16,60.94,4.42Z" transform="translate(-3.81 -4.09)"/><path class="cls-1" d="M73.67,4.42h4.07q0,10.14,0,20.29c2.23.09,4.47.2,6.7.32v3.43q-5.38-.33-10.77-.54Q73.68,16.17,73.67,4.42Z" transform="translate(-3.81 -4.09)"/><path class="cls-1" d="M86.39,4.43h4.07l0,24.44-4.07-.28Z" transform="translate(-3.81 -4.09)"/><path class="cls-1" d="M97.1,16.65c-1.5-4.14-3-8.2-4.49-12.21H96.9c.92,2.69,1.83,5.4,2.75,8.15h.07q1.4-4,2.81-8.14h3.84q-2.24,6.31-4.47,12.41,2.35,6.61,4.7,13.49-2.14-.24-4.29-.45-1.47-4.57-3-9.06h-.08c-1,2.86-2,5.69-3,8.5L92.41,29Q94.75,22.93,97.1,16.65Z" transform="translate(-3.81 -4.09)"/></svg>